<svg width="27" height="25" viewBox="0 0 27 25" fill="none" xmlns="http://www.w3.org/2000/svg">
<path d="M26.4365 6.05785C26.2828 5.48993 25.9814 4.97202 25.5626 4.55595C25.1438 4.13989 24.6221 3.84026 24.0499 3.68705C21.9435 3.125 13.5 3.125 13.5 3.125C13.5 3.125 5.05647 3.125 2.95011 3.68406C2.37763 3.83677 1.85572 4.13624 1.4368 4.55238C1.01788 4.96852 0.716703 5.48669 0.563504 6.05486C-1.14952e-07 8.14761 0 12.5125 0 12.5125C0 12.5125 -1.14952e-07 16.8774 0.563504 18.9672C0.873884 20.1212 1.78996 21.03 2.95011 21.3379C5.05647 21.9 13.5 21.9 13.5 21.9C13.5 21.9 21.9435 21.9 24.0499 21.3379C25.2131 21.03 26.1261 20.1212 26.4365 18.9672C27 16.8774 27 12.5125 27 12.5125C27 12.5125 27 8.14761 26.4365 6.05785ZM10.8181 16.5186V8.50637L17.8092 12.4826L10.8181 16.5186Z" fill="white"/>
</svg>
