<svg width="388" height="366" viewBox="0 0 388 366" fill="none" xmlns="http://www.w3.org/2000/svg">
<mask id="mask0_0_166" style="mask-type:alpha" maskUnits="userSpaceOnUse" x="-1" y="0" width="389" height="366">
<rect x="-0.000488281" y="0.151367" width="387.752" height="364.871" rx="32" fill="#102B44"/>
</mask>
<g mask="url(#mask0_0_166)">
<path d="M415.298 -121.961C385.932 -50.4476 330.686 -63.9658 289.179 -14.5813C246.537 36.4817 255.053 70.1223 197.817 140.413C161.66 184.943 23.8862 167.488 -17.8784 193.472C-68.0717 224.983 -81.6105 293.35 -134.01 309.513C-165.288 319.089 -196.404 328.543 -227.681 338.119M420.849 -97.8845C401.38 -50.29 370.21 -40.2465 339.469 -24.2161C324.179 -16.2619 309.051 -6.78327 295.324 9.5968C252.736 60.0701 260.441 94.3215 203.531 161.897C192.182 175.388 171.546 182.432 147.346 187.223C95.9764 197.123 29.1639 197.808 -4.22326 213.088C-6.97851 214.341 -9.51777 215.706 -11.841 217.182C-52.7417 243.612 -69.6739 293.959 -103.175 320.3C-110.578 326.152 -118.844 330.735 -128.243 333.702C-159.467 343.512 -190.799 352.854 -222.076 362.429M426.399 -73.8067C407.038 -26.5681 376.085 -16.4133 345.397 -0.149128C330.27 7.68288 315.142 17.1619 301.36 33.3082C258.989 83.0697 265.776 118.287 209.138 182.915C197.68 195.938 176.99 202.749 152.899 207.184C101.205 216.505 35.3096 219.516 1.65171 236.098C-1.10354 237.351 -3.64278 238.716 -5.91216 240.426C-46.4351 267.668 -63.8534 317.558 -97.3544 343.9C-104.757 349.752 -112.969 354.569 -122.369 357.536C-153.701 367.701 -185.032 377.043 -216.364 386.385M431.95 -49.7292C412.589 -2.49065 381.851 7.7759 351.326 23.918C336.198 31.75 321.286 41.3405 307.451 57.2531C265.35 106.536 271.11 142.253 214.851 204.4C203.178 217.312 182.489 223.299 158.505 227.378C106.326 236.242 41.5092 241.458 7.5806 259.342C4.87924 260.828 2.34 262.193 0.0167269 263.669C-40.0204 291.369 -57.9244 340.802 -91.6957 367.621C-99.0984 373.474 -107.311 378.29 -116.71 381.257C-147.988 391.656 -179.374 400.765 -210.976 410.585M437.554 -25.4184C418.301 21.4643 387.671 32.1984 357.254 47.9846C342.343 55.9282 327.215 65.4071 313.541 81.1976C271.657 129.769 276.445 166.219 220.511 225.651C208.568 238.217 187.987 243.848 164.112 247.572C111.608 255.856 47.7087 263.4 13.5094 282.585C10.808 284.072 8.26872 285.437 5.99934 287.147C-33.6601 315.659 -52.0498 364.635 -85.8211 391.454C-93.3859 397.429 -101.598 402.245 -110.944 405.446C-142.33 416.201 -173.716 425.309 -205.371 434.895M443.104 -1.3407C423.96 45.1861 393.383 56.154 363.183 72.0518C348.271 79.9954 333.359 89.5857 319.632 105.142C277.964 153.002 281.725 189.951 226.171 246.902C214.012 259.357 193.431 264.165 169.664 267.532C116.837 275.238 53.8545 285.108 19.3843 305.595C16.683 307.082 14.1976 308.68 11.9282 310.39C-27.4075 339.482 -46.2832 388.001 -80.0006 415.054C-87.5654 421.028 -95.7775 425.844 -105.123 429.045C-136.618 440.156 -168.057 449.031 -199.713 458.617M448.655 22.7363C429.672 69.1409 399.312 80.2205 369.111 96.1182C354.2 104.062 339.45 113.53 325.723 129.087C284.325 176.468 286.897 214.039 231.831 268.153C219.564 280.14 198.876 284.481 175.271 287.726C122.12 294.852 60.0543 307.05 25.3135 328.838C22.666 330.558 20.1806 332.157 17.9112 333.867C-21.1007 363.538 -40.4085 411.833 -74.1259 438.886C-81.6907 444.861 -90.0651 449.799 -99.3569 453.234C-130.798 464.579 -162.291 473.22 -194.271 483.05M454.205 46.8139C435.169 92.9848 405.078 104.41 375.04 120.185C360.291 128.007 345.378 137.597 331.813 153.032C290.578 199.468 292.178 237.771 237.491 289.405C225.008 301.28 204.374 305.031 180.823 307.686C127.349 314.234 66.3082 328.402 30.9724 351.736C28.3249 353.457 25.8395 355.055 23.5701 356.765C-15.0642 387.249 -34.8577 435.088 -68.7373 462.263C-76.4641 468.36 -84.6225 473.41 -93.9682 476.611C-125.571 488.077 -157.01 496.952 -188.99 506.782M459.756 70.8909C440.881 116.94 410.791 128.365 380.968 144.252C366.219 152.073 351.523 161.775 337.904 176.976C296.939 222.934 297.296 261.625 243.151 310.656C230.398 322.186 209.818 325.346 186.43 327.88C132.632 333.848 72.508 350.344 36.9015 374.979C34.254 376.7 31.8225 378.532 29.5532 380.242C-8.59526 411.183 -29.0366 458.686 -62.8623 486.095C-70.5352 492.426 -78.7475 497.242 -88.0393 500.677C-119.588 512.377 -151.244 521.141 -183.224 530.971M465.36 95.2027C446.594 140.896 416.773 152.666 386.951 168.553C372.364 176.252 357.667 185.954 344.048 201.155C303.3 246.401 302.469 285.713 249.027 332.019C236.004 343.204 215.479 345.775 192.252 348.186C137.914 353.464 78.9237 372.398 43.0464 398.335C40.4528 400.289 37.9674 401.888 35.7519 403.832C-2.07272 435.351 -22.9462 482.632 -56.7718 510.041C-64.4448 516.371 -72.819 521.31 -82.0568 524.978C-113.714 537.035 -145.369 545.798 -177.403 555.394M470.911 119.28C452.253 164.616 422.486 176.62 392.879 192.619C378.346 200.552 363.812 210.132 350.139 225.099C309.607 269.634 307.696 309.211 254.687 353.269C241.448 364.343 220.923 366.091 197.805 368.146C143.143 372.844 85.1776 393.75 48.9213 421.344C46.3278 423.298 43.8963 425.131 41.6808 427.074C4.17986 459.173 -17.0171 505.875 -50.951 533.639C-58.6239 539.97 -66.9985 544.909 -76.2364 548.577C-107.84 560.867 -139.549 569.396 -171.907 579.237M476.461 143.357C457.965 188.572 428.252 200.81 398.808 216.687C384.274 224.62 369.741 234.2 356.23 249.044C315.914 292.867 312.76 332.832 260.347 374.521C246.838 385.249 226.421 386.641 203.411 388.34C148.426 392.46 91.3236 415.458 54.8505 444.588C52.2569 446.542 49.8255 448.375 47.61 450.318C10.4328 482.996 -11.1964 529.475 -45.2924 557.362C-53.1274 563.814 -61.4477 568.986 -70.5235 572.533C-102.235 585.179 -133.944 593.708 -166.302 603.549M482.011 167.434C463.462 212.415 434.019 224.998 404.736 240.753C390.365 248.564 375.831 258.144 362.266 272.755C322.059 316.222 317.608 356.34 265.953 395.538C252.174 405.921 231.812 406.723 208.91 408.066C153.601 411.606 97.4155 436.932 60.6716 467.363C58.1319 469.551 55.7005 471.384 53.485 473.327C16.7937 506.462 -5.42982 552.84 -39.5258 580.727C-47.3608 587.179 -55.6813 592.351 -64.9192 596.02C-96.7388 609.022 -128.502 617.317 -160.86 627.158M487.562 191.512C469.174 236.371 439.894 248.832 410.665 264.82C396.294 272.631 381.975 282.323 368.357 296.7C328.366 339.455 322.619 379.727 271.613 416.79C257.619 427.06 237.094 427.162 214.517 428.261C158.83 430.988 103.724 458.519 66.6008 490.607C64.0611 492.795 61.6835 494.861 59.468 496.805C23.1544 530.753 0.39138 576.439 -33.6507 604.56C-41.4858 611.013 -49.8065 616.185 -58.9905 620.087C-90.7563 633.323 -122.573 641.385 -155.255 651.47M493.166 215.823C474.887 260.326 445.714 273.254 416.647 289.121C402.438 296.809 387.958 306.623 374.502 320.878C334.727 362.921 327.738 403.581 277.327 438.274C263.063 448.2 242.592 447.711 220.123 448.455C164.112 450.602 109.869 480.227 72.5296 513.851C69.9899 516.039 67.6123 518.104 65.4506 520.282C29.4608 554.809 6.26605 600.272 -27.776 628.393C-35.6111 634.845 -44.0938 640.14 -53.2778 644.042C-85.1517 657.634 -116.969 665.695 -149.705 675.547M498.717 239.9C480.545 284.048 451.48 297.444 422.576 313.188C408.367 320.877 394.102 330.802 380.592 344.823C341.088 386.388 332.749 426.968 282.987 459.526C268.453 469.106 248.091 468.261 225.73 468.649C169.233 470.34 116.177 501.813 78.4584 537.094C75.9726 539.516 73.595 541.582 71.3795 543.526C35.7134 578.632 12.0325 623.638 -22.1178 652.115C-30.115 658.689 -38.4351 663.861 -47.5653 667.997C-79.3853 681.823 -111.418 689.773 -144.101 699.858M504.267 263.978C486.258 308.003 457.355 321.277 428.504 337.254C414.349 345.177 400.193 354.746 386.683 368.768C347.395 409.621 337.759 450.354 288.647 480.777C273.843 490.011 253.535 488.577 231.174 488.965C174.3 489.843 122.215 523.877 84.0634 560.581C81.5776 563.003 79.2 565.069 77.0384 567.247C41.6961 602.932 17.7451 647.593 -16.5673 676.192C-24.5644 682.766 -32.9928 688.295 -42.0147 692.075C-73.943 706.256 -105.976 714.206 -138.874 724.18M509.817 288.055C491.754 331.846 463.121 345.465 434.433 361.321C420.44 369.121 406.283 378.691 392.773 392.712C353.702 432.854 342.716 473.507 294.36 502.262C279.286 511.151 259.033 509.127 236.781 509.159C179.583 509.457 128.361 545.585 89.9923 583.825C87.5065 586.246 85.1826 588.546 82.8589 590.846C48.0025 626.988 23.4577 671.548 -10.8547 700.147C-18.8519 706.722 -27.2804 712.25 -36.4105 716.386C-68.2849 730.801 -100.372 738.517 -133.432 748.613M515.368 312.133C497.467 355.802 468.887 369.654 440.361 385.388C426.368 393.188 412.266 402.992 398.864 416.657C360.062 456.321 347.727 496.894 300.02 523.513C284.677 532.057 264.478 529.443 242.387 529.353C184.865 529.072 134.614 566.938 95.9208 607.069C93.435 609.491 91.1115 611.79 88.8417 614.323C54.309 651.045 29.2782 695.148 -4.98034 723.98C-12.9236 730.789 -21.406 736.083 -30.5361 740.219C-62.5187 754.99 -94.6056 762.706 -127.72 772.568M520.972 336.444C503.179 379.757 474.654 393.843 446.343 409.689C432.512 417.367 418.41 427.17 405.008 440.835C366.423 479.787 352.575 520.403 305.896 544.876C290.12 553.196 270.138 549.871 248.155 549.425C190.256 548.331 140.922 588.523 102.012 630.19C99.5801 632.845 97.2562 635.145 94.9325 637.445C60.7235 674.745 35.2609 718.625 0.840294 747.58C-7.26509 754.51 -15.7477 759.805 -24.8239 764.174C-56.9686 779.068 -89.0554 786.784 -122.278 797.002M526.523 360.521C508.838 403.478 480.582 417.91 452.272 433.755C438.441 441.433 424.555 451.348 411.099 464.78C372.731 503.02 357.532 543.555 311.556 566.127C295.511 574.102 275.582 570.187 253.762 569.618C195.539 567.946 147.068 610.231 107.941 653.433C105.509 656.088 103.185 658.388 100.916 660.922C66.9766 698.568 41.136 742.457 6.7154 771.412C-1.38998 778.343 -9.81866 783.871 -18.9488 788.007C-51.0396 803.134 -83.1803 810.616 -116.565 820.957M532.073 384.598C514.55 427.433 486.348 442.099 458.2 457.822C444.531 465.379 430.483 475.415 417.189 488.725C379.091 526.487 362.489 566.708 317.216 587.378C300.847 594.774 281.027 590.503 259.368 589.813C200.767 587.327 153.376 631.818 113.87 676.676C111.438 679.332 109.168 681.865 106.898 684.399C73.4451 722.502 46.9565 766.057 12.5898 795.245C4.48439 802.176 -4.10644 807.826 -13.0206 812.074C-45.2196 827.557 -77.3605 835.04 -110.799 845.146M537.624 408.676C520.047 451.277 492.062 466.055 464.129 481.889C450.514 489.679 436.628 499.594 423.226 512.436C385.344 549.486 367.392 589.627 322.822 608.396C306.183 615.446 286.471 610.819 264.867 609.539C205.942 606.475 159.36 652.825 119.691 699.452C117.313 702.342 114.99 704.641 112.774 707.408C79.6443 746.091 52.8854 789.301 18.1945 818.733C9.92703 825.786 1.4986 831.314 -7.52374 835.918C-39.6688 851.635 -72.0258 859.005 -105.626 869.234M543.228 432.986C525.814 475.466 498.044 490.355 470.112 506.19C456.497 513.979 442.773 523.772 429.371 536.614C391.706 572.952 372.348 612.78 328.536 629.88C311.627 636.586 291.97 631.369 270.528 629.967C211.225 626.089 165.56 674.766 125.674 722.929C123.458 725.696 121.026 728.352 118.81 731.12C86.0046 770.381 58.7605 813.133 24.1235 842.8C15.856 849.853 7.26501 855.503 -1.59523 859.984C-33.8485 876.057 -66.2052 883.428 -99.8057 893.656M548.778 457.064C531.472 499.187 503.756 514.31 476.04 530.256C462.587 537.924 448.863 547.717 435.462 560.559C398.067 596.419 377.252 635.699 334.196 651.132C316.963 657.258 297.414 651.685 276.08 649.927C216.4 645.237 171.598 696.007 131.549 745.939C129.333 748.706 126.901 751.362 124.685 754.129C92.2035 793.97 64.5273 836.499 29.8903 866.165C21.6228 873.218 13.086 879.102 4.06364 883.706C-28.2979 900.134 -60.5466 907.149 -94.3092 917.5M554.329 481.142C537.131 522.909 509.523 538.5 481.968 554.324C468.515 561.991 454.845 572.018 441.552 584.504C404.211 619.774 382.208 658.852 339.856 672.383C322.353 678.164 302.858 672.002 281.687 670.121C221.683 664.852 177.906 717.593 137.262 769.071C135.046 771.838 132.668 774.728 130.452 777.495C98.2938 817.915 70.1855 860.221 35.5485 889.887C27.281 896.94 18.7441 902.824 9.7218 907.428C-22.5858 924.09 -54.9964 931.227 -88.975 941.466M559.879 505.219C542.843 546.864 515.289 562.688 487.897 578.39C474.606 585.936 460.936 595.962 447.643 608.448C410.518 643.007 387.273 681.649 345.516 693.634C327.852 698.713 308.302 692.318 287.239 690.081C226.858 683.999 183.944 738.833 143.137 792.08C140.975 795.081 138.597 797.971 136.381 800.738C104.493 841.503 75.9524 883.586 41.2071 913.608C32.7776 920.783 24.2408 926.667 15.4344 931.383C-16.9815 948.401 -49.4462 955.304 -83.4248 965.543M565.429 529.296C548.34 570.708 521.164 586.521 493.826 602.457C480.535 610.002 467.08 620.141 453.733 632.393C416.879 666.474 392.176 704.568 351.176 714.885C333.188 719.385 313.747 712.634 292.846 710.275C232.14 703.614 190.036 760.308 149.066 815.324C146.904 818.325 144.526 821.214 142.364 824.215C110.961 865.437 81.8269 907.419 47.0817 937.442C38.6521 944.617 30.1151 950.5 21.1466 955.338C-11.2153 972.59 -43.7336 979.259 -77.8204 989.854M571.034 553.607C554.107 594.897 526.984 610.944 499.808 626.757C486.571 634.537 473.225 644.319 459.878 656.571C423.24 689.94 397.079 727.487 356.89 736.37C338.578 740.291 319.408 733.061 298.506 730.703C237.423 723.229 196.236 782.25 155.049 838.801C152.887 841.802 150.563 844.925 148.347 847.692C117.268 889.493 87.81 930.896 52.9566 961.275C44.5809 968.683 35.8821 974.689 27.0758 979.404C-5.3944 997.012 -37.913 1003.68 -72.2158 1014.17M576.584 577.685C559.765 618.618 532.75 635.133 505.736 650.825C492.662 658.482 479.207 668.62 465.968 680.516C429.601 713.407 402.144 750.284 362.712 757.499C344.13 761.075 325.014 753.256 304.221 750.541C242.923 742.132 202.436 803.368 161.086 861.688C158.924 864.689 156.6 867.813 154.438 870.814C123.683 913.194 93.7927 954.374 58.9392 984.752C50.5635 992.161 41.8645 998.167 33.0581 1002.88C0.533603 1021.08 -32.0926 1027.28 -66.3954 1037.76M582.135 601.762C565.424 642.34 538.625 658.966 511.665 674.891C498.59 682.549 485.298 692.565 472.059 704.461C435.908 736.64 407.209 773.081 368.372 778.75C349.628 781.625 330.458 773.572 309.827 770.735C248.151 761.513 208.528 824.843 167.015 884.932C164.907 888.167 162.583 891.29 160.421 894.291C129.935 937.016 99.6674 978.207 64.6518 1008.71C56.114 1016.24 47.5768 1022.12 38.6623 1027.19C6.19167 1045.62 -26.5963 1051.95 -60.953 1062.2M587.685 625.839C570.974 666.417 544.391 683.155 517.593 698.958C504.68 706.493 491.389 716.509 478.096 728.172C442.161 759.639 412.22 795.644 374.031 800.002C354.91 802.063 335.903 793.888 315.38 790.695C253.38 780.894 214.565 846.084 172.89 907.942C170.782 911.176 168.458 914.3 166.35 917.534C136.188 960.839 105.434 1001.57 70.4724 1032.31C61.9347 1039.84 53.2358 1045.84 44.4834 1050.79C11.8506 1069.35 -20.7758 1075.55 -55.2407 1086.15M593.236 649.917C576.633 690.138 550.158 707.344 523.522 723.025C510.61 730.56 497.371 740.81 484.186 752.117C448.522 783.106 417.231 818.207 379.692 821.253C360.247 822.735 341.347 814.204 320.987 810.889C258.609 800.275 220.658 867.558 178.819 931.185C176.711 934.42 174.441 937.777 172.279 940.778C142.441 984.661 111.255 1025.17 76.2935 1055.91C67.7557 1063.44 59.1105 1069.68 50.1959 1074.75C17.6171 1093.53 -15.171 1099.86 -49.8518 1110.35M598.84 674.228C582.399 714.328 555.924 731.533 529.504 747.326C516.592 754.861 503.515 764.988 490.331 776.295C454.937 806.806 422.35 841.238 385.405 842.738C365.799 843.519 346.845 834.754 326.593 831.083C263.838 819.656 226.587 889.155 184.748 954.429C182.64 957.663 180.531 960.898 178.261 964.255C148.693 1008.48 117.075 1048.77 82.1677 1079.74C73.4678 1087.39 64.8227 1093.63 56.1241 1098.81C23.4371 1117.96 -9.40509 1124.05 -44.086 1134.54M604.39 698.305C588.058 738.049 561.853 755.6 535.433 771.393C522.736 779.039 509.66 789.167 496.421 800.24C461.244 830.039 427.361 863.802 391.065 863.989C371.297 864.069 352.29 855.07 332.2 851.277C269.229 838.915 232.679 910.629 190.677 977.672C188.569 980.907 186.514 984.375 184.244 987.732C155 1032.54 123.112 1072.48 87.8804 1103.69C79.1805 1111.35 70.5355 1117.59 61.8369 1122.77C29.0416 1142.27 -3.69247 1148 -38.5354 1158.62M609.941 722.383C593.716 761.771 567.565 779.556 541.361 795.46C528.664 803.106 515.751 813.112 502.512 824.185C467.551 853.272 432.588 886.477 396.725 885.24C376.579 884.507 357.734 875.386 337.806 871.471C274.458 858.296 238.771 932.104 196.444 1001.04C194.389 1004.51 192.281 1007.74 190.065 1011.33C161.091 1056.49 128.825 1096.44 93.5931 1127.65C84.8932 1135.3 76.2479 1141.54 67.4411 1147.08C34.6998 1166.81 1.80364 1172.67 -33.2014 1183.41M615.491 746.46C599.267 785.848 573.331 803.744 547.29 819.526C501.311 847.038 450.994 910.195 402.547 906.369C382.24 904.935 363.341 895.58 343.521 891.309C279.795 877.321 244.971 953.222 202.481 1023.92C172.37 1074.05 137.402 1117.14 99.5218 1150.89C57.8593 1188.05 16.8618 1193.42 -27.4346 1206.77" stroke="url(#paint0_linear_0_166)" stroke-opacity="0.3" stroke-miterlimit="10"/>
</g>
<defs>
<linearGradient id="paint0_linear_0_166" x1="278.652" y1="909.473" x2="-145.454" y2="249.002" gradientUnits="userSpaceOnUse">
<stop stop-color="white" stop-opacity="0.16"/>
<stop offset="0.776808" stop-color="white"/>
</linearGradient>
</defs>
</svg>
