<svg width="179" height="327" viewBox="0 0 179 327" fill="none" xmlns="http://www.w3.org/2000/svg">
<mask id="mask0_0_809" style="mask-type:alpha" maskUnits="userSpaceOnUse" x="0" y="0" width="179" height="327">
<rect y="0.492188" width="178.464" height="325.722" fill="#102B44"/>
</mask>
<g mask="url(#mask0_0_809)">
<path d="M275.258 -243.619C255.794 -200.711 219.177 -208.822 191.666 -179.192C163.403 -148.555 169.048 -128.371 131.112 -86.1973C107.148 -59.4796 15.8317 -69.952 -11.8496 -54.3624C-45.1174 -35.456 -54.0909 5.56372 -88.8211 15.2614C-109.552 21.0067 -130.175 26.6789 -150.906 32.4242M278.937 -229.173C266.033 -200.617 245.373 -194.591 224.998 -184.973C214.864 -180.2 204.838 -174.513 195.739 -164.685C167.512 -134.402 172.619 -113.851 134.9 -73.3067C127.377 -65.2125 113.7 -60.9859 97.6605 -58.1114C63.6127 -52.1715 19.3297 -51.7609 -2.79907 -42.5927C-4.62523 -41.8409 -6.30824 -41.0221 -7.84809 -40.1364C-34.9568 -24.2789 -46.1794 5.92873 -68.3837 21.7332C-73.2901 25.2445 -78.769 27.994 -84.9989 29.7744C-105.694 35.6599 -126.46 41.2651 -147.191 47.0104M282.615 -214.727C269.783 -186.384 249.267 -180.291 228.928 -170.533C218.901 -165.834 208.874 -160.146 199.74 -150.459C171.656 -120.602 176.155 -99.4721 138.615 -60.6964C131.022 -52.8827 117.308 -48.7963 101.341 -46.1353C67.0783 -40.5429 23.4031 -38.7361 1.09483 -28.787C-0.731332 -28.0352 -2.41433 -27.2164 -3.91846 -26.1904C-30.7769 -9.84519 -42.3216 20.0883 -64.5259 35.8927C-69.4323 39.4041 -74.8754 42.2939 -81.1054 44.0743C-101.872 50.1734 -122.638 55.7783 -143.405 61.3833M286.294 -200.28C273.462 -171.938 253.089 -165.778 232.857 -156.093C222.831 -151.394 212.947 -145.639 203.777 -136.092C175.872 -106.523 179.69 -85.0928 142.402 -47.8055C134.665 -40.0587 120.952 -36.4666 105.057 -34.0191C70.4721 -28.7009 27.5122 -25.5712 5.02447 -14.8412C3.23402 -13.9491 1.55102 -13.1304 0.011173 -12.2446C-26.5252 4.37479 -38.3919 34.0341 -60.7753 50.1253C-65.6818 53.6367 -71.1249 56.5265 -77.3549 58.3068C-98.0858 64.5462 -118.888 70.0111 -139.834 75.903M290.009 -185.694C277.248 -157.565 256.946 -151.125 236.786 -141.653C226.903 -136.887 216.876 -131.2 207.814 -121.726C180.053 -92.5832 183.226 -70.7138 146.154 -35.0553C138.238 -27.5157 124.597 -24.1369 108.773 -21.903C73.9735 -16.9323 31.6212 -12.4062 8.95402 -0.895324C7.16358 -0.00326202 5.48055 0.8155 3.97642 1.8415C-22.3097 18.9486 -34.4982 48.3336 -56.8817 64.4249C-61.8956 68.0095 -67.3385 70.8992 -73.5328 72.8198C-94.3354 79.2727 -115.138 84.7376 -136.119 90.4892M293.687 -171.248C280.998 -143.332 260.732 -136.752 240.716 -127.213C230.832 -122.447 220.949 -116.693 211.85 -107.359C184.233 -78.6437 186.726 -56.4747 149.905 -22.3046C141.846 -14.832 128.205 -11.9474 112.453 -9.92701C77.4391 -5.30375 35.6945 0.618575 12.8479 12.9103C11.0575 13.8024 9.41017 14.7614 7.90603 15.7874C-18.1655 33.242 -30.6761 62.3529 -53.0239 78.5844C-58.0378 82.1691 -63.4807 85.0587 -69.675 86.9793C-90.5494 93.6457 -111.387 98.9703 -132.369 104.722M297.366 -156.802C284.785 -128.959 264.662 -122.312 244.645 -112.773C234.762 -108.007 224.986 -102.327 215.887 -92.9927C188.449 -64.5642 190.154 -42.0224 153.656 -9.55431C145.526 -2.36221 131.814 0.241887 116.169 2.18899C80.9405 6.46477 39.8038 13.7832 16.7777 26.8558C15.023 27.8881 13.3757 28.8472 11.8716 29.8731C-13.9853 47.6752 -26.7825 76.6522 -49.1302 92.8837C-54.1441 96.4684 -59.6946 99.4314 -65.8531 101.492C-86.6918 108.299 -107.565 113.483 -128.761 119.382M301.045 -142.355C288.428 -114.653 268.484 -107.799 248.574 -98.3335C238.799 -93.6407 228.915 -87.8864 219.924 -78.6259C192.593 -50.7647 193.654 -27.7833 157.408 3.19629C149.134 10.3214 135.458 12.5718 119.849 14.1651C84.4061 18.0934 43.9488 26.5945 20.5284 40.5946C18.7737 41.6269 17.1264 42.586 15.6222 43.612C-9.98435 61.9018 -23.1034 90.6045 -45.5586 106.909C-50.6799 110.567 -56.0873 113.597 -62.2815 115.518C-83.2277 122.398 -104.065 127.722 -125.261 133.621M304.724 -127.91C292.214 -100.281 272.27 -93.426 252.504 -83.8938C242.728 -79.201 232.987 -73.3798 223.961 -64.2596C196.81 -36.6852 197.047 -13.4713 161.159 15.9466C152.707 22.8645 139.067 24.761 123.565 26.281C87.9076 29.8619 48.058 39.7592 24.4582 54.5401C22.7035 55.5725 21.0919 56.6718 19.5878 57.6978C-5.69681 76.2618 -19.2452 104.763 -41.6647 121.209C-46.7503 125.007 -52.1933 127.896 -58.3519 129.957C-79.2623 136.978 -100.243 142.235 -121.44 148.134M308.438 -113.323C296 -85.9075 276.235 -78.8455 256.469 -69.3133C246.801 -64.6938 237.06 -58.8727 228.034 -49.7524C201.026 -22.6051 200.475 0.981543 165.054 28.7644C156.422 35.4751 142.818 37.0179 127.424 38.4647C91.4089 41.6311 52.3103 52.9915 28.531 68.5534C26.812 69.7259 25.1647 70.685 23.6963 71.8512C-1.3737 90.7627 -15.2085 119.131 -37.628 135.576C-42.7136 139.374 -48.2639 142.337 -54.3868 144.538C-75.3689 151.772 -96.3499 157.029 -117.582 162.787M312.117 -98.8769C299.751 -71.6753 280.021 -64.473 260.398 -54.8738C250.766 -50.1141 241.133 -44.3662 232.07 -35.3862C205.206 -8.66598 203.939 15.0798 168.805 41.5145C160.031 48.1582 146.427 49.2071 131.104 50.4403C94.8744 53.2592 56.4553 65.8023 32.4249 82.3586C30.7059 83.5311 29.0943 84.6304 27.6259 85.7966C2.77047 105.056 -11.2788 133.076 -33.7699 149.735C-38.8555 153.533 -44.4061 156.496 -50.529 158.697C-71.4754 166.071 -92.4921 171.188 -113.939 177.093M315.796 -84.4304C303.537 -57.3021 283.843 -49.9595 264.328 -40.4336C254.695 -35.6738 245.062 -29.9261 236.107 -21.0194C209.386 5.27372 207.296 29.2522 172.557 54.2653C163.603 60.7018 150.071 61.537 134.82 62.5567C98.3758 65.0281 60.5289 78.8272 36.3547 96.3046C34.6357 97.4771 33.0241 98.5765 31.5557 99.7427C6.91491 119.349 -7.42084 147.236 -30.0195 163.968C-35.2125 167.839 -40.7271 170.942 -46.7425 173.07C-67.7607 180.658 -88.7774 185.775 -110.224 191.68M319.475 -69.9847C307.18 -42.9966 287.665 -35.4469 268.257 -25.9943C258.732 -21.3078 249.099 -15.5598 240.108 -6.79334C213.459 19.2863 210.509 43.3569 176.272 66.8753C167.14 73.1046 153.644 73.5859 138.465 74.392C101.806 76.516 64.5665 91.7113 40.2129 109.969C38.5296 111.282 36.918 112.382 35.4496 113.548C11.1308 133.428 -3.59877 161.254 -26.1974 177.986C-31.3904 181.858 -36.9052 184.961 -43.028 187.162C-64.1179 194.963 -85.1702 199.94 -106.617 205.845M323.154 -55.5381C310.966 -28.6233 291.559 -21.1469 272.187 -11.5541C262.661 -6.86762 253.171 -1.05271 244.145 7.57352C217.639 33.226 213.831 57.3888 180.024 79.6259C170.748 85.7883 157.145 85.849 142.181 86.5085C105.271 88.1448 68.7475 104.663 44.1427 123.916C42.4594 125.228 40.8836 126.468 39.4152 127.634C15.3467 148.002 0.259487 175.414 -22.3034 192.286C-27.4965 196.158 -33.0114 199.261 -39.0985 201.602C-60.1527 209.544 -81.2407 214.38 -102.902 220.431M326.868 -40.9519C314.753 -14.2507 295.417 -6.49369 276.152 3.02585C266.734 7.63905 257.137 13.5272 248.218 22.0801C221.855 47.3056 217.223 71.7009 183.811 92.5165C174.357 98.4716 160.789 98.1785 145.897 98.6245C108.773 99.9132 72.8208 117.688 48.0723 137.861C46.389 139.174 44.8131 140.414 43.3804 141.72C19.5265 162.436 4.15318 189.713 -18.4097 206.585C-23.6028 210.457 -29.225 213.634 -35.3121 215.975C-56.438 224.13 -77.5261 228.967 -99.2235 234.878M330.547 -26.5057C318.503 -0.0179123 299.239 8.01965 280.081 17.4659C270.663 22.0791 261.209 28.0341 252.254 36.4468C226.071 61.3854 220.544 85.7327 187.562 105.267C177.929 111.015 164.433 110.508 149.612 110.741C112.167 111.755 77.0016 130.639 52.0019 151.807C50.3543 153.26 48.7785 154.5 47.31 155.666C23.6707 176.729 7.97515 203.733 -14.6595 220.818C-19.96 224.763 -25.4745 227.866 -31.5259 230.348C-52.6161 238.643 -73.8475 243.413 -95.5091 249.464M334.226 -12.0596C322.289 14.3548 303.132 22.3191 284.01 31.9056C274.628 36.6591 265.246 42.4005 256.291 50.8132C230.252 75.3247 223.865 99.7642 191.314 118.017C181.502 123.558 168.042 122.698 153.221 122.93C115.525 123.457 81.0035 143.877 55.7169 165.899C54.0693 167.352 52.4934 168.592 51.0607 169.898C27.636 191.309 11.7615 218.105 -10.9806 235.264C-16.2811 239.209 -21.8674 242.526 -27.8471 244.794C-49.0089 253.303 -70.2403 258.072 -92.045 264.057M337.904 2.3864C325.932 28.6606 306.954 36.8319 287.94 46.3452C278.665 51.0253 269.282 56.767 260.328 65.1797C234.432 89.2642 227.15 113.656 195.1 130.908C185.11 136.242 171.686 135.027 156.937 135.046C119.026 135.226 85.0768 156.902 59.6465 179.845C57.9989 181.298 56.4587 182.678 54.9185 184.058C31.8158 205.743 15.5477 232.478 -7.19437 249.637C-12.4948 253.582 -18.0812 256.899 -24.1326 259.38C-45.2588 268.029 -66.5259 272.659 -88.4381 278.716M341.583 16.8328C329.718 43.0337 310.776 51.3453 291.869 60.7852C282.594 65.4654 273.248 71.3473 264.365 79.5464C238.648 103.344 230.471 127.688 198.852 143.659C188.682 148.785 175.294 147.217 160.653 147.162C122.528 146.994 89.2217 169.713 63.5759 193.791C61.9283 195.244 60.3883 196.624 58.8839 198.144C35.9958 220.176 19.4055 246.638 -3.30086 263.937C-8.56563 268.022 -14.1877 271.198 -20.2391 273.68C-41.437 282.542 -62.704 287.172 -84.6519 293.089M345.298 31.4192C333.505 57.4065 314.598 65.8584 295.834 75.3653C286.667 79.9722 277.32 85.854 268.437 94.0531C242.863 117.424 233.685 141.792 202.746 156.476C192.29 161.468 179.046 159.473 164.476 159.205C126.101 158.549 93.4026 182.664 67.6131 207.663C66.0012 209.257 64.461 210.637 62.9208 212.016C40.2473 234.396 23.3708 260.724 0.557023 278.096C-4.81518 282.255 -10.4374 285.431 -16.4531 288.053C-37.7584 296.989 -59.0254 301.618 -81.045 307.749M348.976 45.8651C337.255 71.6389 318.527 80.2981 299.764 89.805C290.596 94.4119 281.393 100.361 272.474 108.42C247.044 131.363 236.97 155.684 206.498 169.226C195.863 174.011 182.655 171.663 168.192 171.321C129.602 170.318 97.4762 195.689 71.543 221.609C69.9311 223.202 68.3909 224.582 66.8864 226.102C44.3918 248.69 27.2648 275.023 4.45101 292.395C-0.921192 296.554 -6.50768 299.871 -12.5591 302.352C-33.8287 311.428 -55.1314 315.918 -77.2585 322.122M352.655 60.3114C341.041 86.012 322.349 94.8115 303.693 104.245C294.633 108.779 285.322 114.801 276.511 122.786C251.26 145.443 240.256 169.575 210.249 181.977C199.4 186.415 186.263 183.852 171.908 183.438C133.068 181.947 101.657 208.64 75.4723 235.555C73.8604 237.148 72.3561 238.668 70.8517 240.188C48.6791 263.05 31.1226 289.182 8.34451 306.695C2.97231 310.853 -2.72165 314.244 -8.62988 316.792C-29.9712 326.082 -51.274 330.571 -73.4368 336.635M356.334 74.7577C344.685 100.318 326.136 109.184 307.622 118.685C298.599 123.359 289.395 129.307 280.512 137.013C255.404 159.242 243.505 183.327 213.965 194.587C202.937 198.818 189.872 196.042 175.553 195.273C136.498 193.435 105.623 221.244 79.3307 249.22C77.7546 250.954 76.2146 252.334 74.7459 253.994C52.7879 277.203 35.0522 303.128 12.0593 320.788C6.57966 325.019 0.993343 328.336 -4.98662 331.098C-26.2922 340.528 -47.7382 344.95 -70.0084 351.087M360.049 89.3438C348.507 114.831 330.101 123.764 311.588 133.265C302.564 137.939 293.467 143.814 284.585 151.519C259.621 173.322 246.791 197.218 217.752 207.478C206.545 211.501 193.516 208.371 179.304 207.53C139.999 205.203 109.732 234.409 83.2963 263.306C81.8276 264.966 80.2156 266.56 78.7469 268.22C57.0035 291.777 38.9462 317.428 15.989 335.227C10.5094 339.459 4.81529 342.849 -1.05723 345.538C-22.4346 355.181 -43.8803 359.604 -66.1506 365.741M363.727 103.79C352.257 129.064 333.887 138.137 315.517 147.705C306.6 152.305 297.504 158.181 288.622 165.886C263.837 187.401 250.04 210.969 221.504 220.228C210.082 223.904 197.125 220.561 182.985 219.506C143.429 216.692 113.734 247.153 87.1903 277.112C85.7216 278.772 84.1096 280.366 82.6409 282.026C61.1121 305.93 42.7684 331.447 19.8112 349.246C14.3315 353.478 8.67339 357.008 2.69344 359.77C-18.7556 369.627 -40.1299 373.836 -62.5075 380.046M367.406 118.236C356.008 143.296 337.709 152.65 319.446 162.145C310.53 166.745 301.469 172.761 292.658 180.253C267.909 201.414 253.325 224.861 225.255 232.979C213.654 236.447 200.733 232.75 186.701 231.622C146.93 228.461 117.915 260.105 90.9766 290.991C89.5079 292.651 87.9317 294.385 86.463 296.045C65.1487 320.296 46.5187 345.68 23.5614 363.479C18.0818 367.711 12.4236 371.241 6.44363 374.003C-14.9697 384 -36.4513 388.283 -58.9721 394.426M371.085 132.682C359.794 157.669 341.531 167.163 323.375 176.584C314.566 181.112 305.506 187.127 296.695 194.619C272.09 215.354 256.683 238.538 229.006 245.729C217.298 248.777 204.341 244.94 190.381 243.598C150.36 239.948 121.917 272.849 94.8705 304.796C93.4375 306.597 91.8613 308.33 90.3926 309.991C69.2572 334.449 50.3409 359.699 27.312 377.712C21.7249 382.017 16.0667 385.547 10.2299 388.376C-11.2551 398.587 -32.7726 402.729 -55.2934 408.872M374.764 147.129C363.437 171.975 345.425 181.463 327.305 191.024C318.496 195.551 309.578 201.634 300.732 208.986C276.305 229.434 259.932 252.29 232.757 258.48C220.835 261.18 207.95 257.129 194.097 255.714C153.862 251.717 125.955 285.733 98.8003 318.742C97.3673 320.542 95.791 322.276 94.358 324.077C73.5447 348.809 54.2345 373.998 31.2056 392.011C25.6185 396.316 19.9602 399.846 14.016 402.749C-7.43338 413.1 -28.9863 417.101 -51.5789 423.458M378.478 161.715C367.259 186.488 349.282 196.116 331.27 205.604C322.497 210.272 313.651 216.141 304.805 223.492C280.522 243.513 263.182 266.041 236.545 271.37C224.408 273.723 211.702 269.385 197.849 267.97C157.363 263.486 130.064 298.898 102.766 332.828C101.333 334.629 99.7924 336.502 98.3237 338.163C77.7249 363.243 58.2001 388.084 35.0994 406.311C29.548 410.756 23.7826 414.359 17.9458 417.189C-3.5753 427.753 -25.1284 431.755 -47.8641 438.045M382.157 176.161C371.009 200.721 353.104 210.63 335.199 220.044C326.533 224.638 317.616 230.721 308.841 237.859C284.737 257.593 266.539 279.719 240.403 284.048C228.087 286.193 215.418 281.502 201.636 279.873C161.008 274.828 134.173 311.569 106.767 346.56C105.334 348.361 103.794 350.235 102.361 352.035C81.9763 377.463 62.1653 402.17 39.0647 420.397C33.5133 424.842 27.7476 428.446 21.9108 431.275C0.353747 442.193 -21.2707 445.914 -44.0064 452.204M385.836 190.607C374.76 214.953 356.998 224.929 339.129 234.484C330.463 239.078 321.653 245.088 312.878 252.225C288.918 271.532 269.896 293.397 244.155 296.798C231.732 298.523 219.026 293.691 205.352 291.989C164.473 286.456 138.211 324.453 110.697 360.506C109.299 362.447 107.759 364.321 106.326 366.121C86.1206 391.756 66.0591 416.47 42.851 434.77C37.1922 439.288 31.5338 442.819 25.6252 445.861C4.10388 456.92 -17.6278 460.714 -40.3993 466.864M389.514 205.053C378.439 229.399 360.82 239.442 343.058 248.924C334.5 253.445 325.69 259.454 316.879 266.452C293.062 285.332 273.217 306.935 247.906 309.549C235.233 310.786 222.635 305.881 209.032 303.965C167.939 298.084 142.213 337.198 114.59 374.312C113.193 376.252 111.653 378.126 110.256 380.067C90.2649 406.049 69.8812 430.489 46.7088 448.929C41.05 453.448 35.2845 457.051 29.4834 460.02C7.85462 471.152 -13.77 474.874 -36.6132 481.237M393.194 219.5C382.189 243.632 364.642 253.955 346.988 263.364C338.429 267.885 329.655 274.034 320.916 280.818C297.278 299.411 276.539 320.472 251.658 322.299C238.77 323.189 226.243 318.07 212.748 316.081C171.405 309.713 146.251 350.082 118.52 388.257C117.123 390.198 115.619 392.212 114.186 394.013C94.4095 420.343 73.7394 444.648 50.567 463.088C44.9082 467.607 39.1782 471.351 33.2697 474.393C11.6766 485.665 -10.0552 489.46 -33.0415 495.756M396.908 234.086C386.011 258.145 368.464 268.468 350.953 277.944C342.394 282.465 333.727 288.541 324.989 295.325C301.53 313.632 279.931 334.29 255.445 335.19C242.449 335.659 229.887 330.4 216.464 328.198C174.87 321.341 150.181 363.04 122.45 402.203C121.053 404.144 119.655 406.085 118.151 408.099C98.5533 434.636 77.5971 458.808 54.4604 477.388C48.6942 481.98 42.9642 485.724 37.1988 488.833C15.534 500.319 -6.23356 503.973 -29.2199 510.269M400.587 248.532C389.762 272.378 372.393 282.908 354.882 292.384C346.467 296.972 337.8 303.048 329.025 309.692C305.71 327.571 283.253 347.828 259.196 347.941C246.094 347.989 233.496 342.589 220.18 340.314C178.444 332.896 154.219 375.924 126.38 416.149C124.982 418.09 123.621 420.171 122.116 422.185C102.733 449.07 81.5983 473.034 58.2467 491.761C52.4805 496.353 46.7506 500.097 40.9852 503.206C19.2487 514.905 -2.44727 518.346 -25.541 524.716M404.265 262.978C393.512 286.611 376.179 297.281 358.811 306.824C350.396 311.412 341.837 317.415 333.062 324.058C309.89 341.51 286.717 361.433 262.947 360.691C249.595 360.251 237.104 354.779 223.896 352.43C181.909 344.525 158.256 388.809 130.202 430.168C128.84 432.249 127.443 434.19 125.974 436.345C106.77 463.436 85.3846 487.407 62.0331 506.134C56.2668 510.726 50.5368 514.47 44.6997 517.793C22.9989 529.632 1.19552 533.146 -22.0057 539.589M407.944 277.425C397.191 301.057 380.001 311.794 362.741 321.263C332.267 337.77 298.916 375.664 266.806 373.368C253.347 372.507 240.82 366.895 227.684 364.332C185.447 355.94 162.366 401.479 134.203 443.9C114.246 473.975 91.0691 499.826 65.9626 520.08C38.3489 542.372 11.176 545.598 -18.1834 553.608" stroke="url(#paint0_linear_0_809)" stroke-opacity="0.3" stroke-miterlimit="10"/>
</g>
<defs>
<linearGradient id="paint0_linear_0_809" x1="215.398" y1="79.319" x2="-3.03436" y2="80.2688" gradientUnits="userSpaceOnUse">
<stop stop-color="white" stop-opacity="0.16"/>
<stop offset="1" stop-color="white"/>
</linearGradient>
</defs>
</svg>
