<svg width="273" height="427" viewBox="0 0 273 427" fill="none" xmlns="http://www.w3.org/2000/svg">
<circle r="5.72807" transform="matrix(0.311567 0.950224 0.950224 -0.311567 212.755 257.382)" fill="#EDEDED"/>
<circle r="5.72807" transform="matrix(0.311567 0.950224 0.950224 -0.311567 138.472 181.28)" fill="#EDEDED"/>
<path d="M215.681 251.862L240.514 189.394L260.762 137.419" stroke="#EDEDED"/>
<path d="M135.217 182.736L173.824 156.763L205.758 134.975" stroke="#EDEDED"/>
<path d="M272.004 273.371L218.396 235.9L141.838 182.851L181.333 185.873L321.846 201.98L371.341 206.858" stroke="#EDEDED"/>
<path d="M280.52 369.503L252.713 323.219L213.099 257.556L228.484 268.586L284.334 312.851L303.842 327.697" stroke="#EDEDED"/>
<path d="M24.1107 122.885L72.1901 147.457L140.412 182.482L128.354 167.888L80.3687 115.2L64.2221 96.7552" stroke="#EDEDED"/>
</svg>
